<svg width="30" height="29" viewBox="0 0 30 29" fill="none" xmlns="http://www.w3.org/2000/svg">
<g id="Flags">
<g clip-path="url(#clip0_9138_565)">
<g id="Group">
<g id="Group_2">
<path id="Vector" d="M63.7813 0.100098H-15.2587V28.9001H63.7813V0.100098Z" fill="white"/>
<path id="Vector_2" d="M63.7813 0.100098H-15.2587V3.30009H63.7813V0.100098Z" fill="#B22234"/>
<path id="Vector_3" d="M63.7813 6.5H-15.2587V9.70003H63.7813V6.5Z" fill="#B22234"/>
<path id="Vector_4" d="M63.7813 12.9001H-15.2587V16.1002H63.7813V12.9001Z" fill="#B22234"/>
<path id="Vector_5" d="M63.7813 19.3H-15.2587V22.5H63.7813V19.3Z" fill="#B22234"/>
<path id="Vector_6" d="M63.7813 25.7002H-15.2587V28.9002H63.7813V25.7002Z" fill="#B22234"/>
<path id="Vector_7" d="M16.3573 0.100098H-15.2587V16.1001H16.3573V0.100098Z" fill="#3C3B6E"/>
<path id="Vector_8" d="M11.0327 1.37231L10.745 2.25803H9.81384L10.567 2.80517L10.2795 3.69048L11.0327 3.14334L11.7858 3.69048L11.4982 2.80509L12.251 2.25803H11.3203L11.0327 1.37231Z" fill="white"/>
<path id="Vector_9" d="M8.41159 3.6189L8.12399 4.50424H7.19312L7.94629 5.05141L7.65847 5.93675L8.4117 5.38955L9.16473 5.93675L8.87711 5.05141L9.63032 4.50424H8.69921L8.41159 3.6189Z" fill="white"/>
<path id="Vector_10" d="M13.6532 3.6189L13.3656 4.50424H12.4348L13.1879 5.05138L12.9001 5.93675L13.6533 5.38955L14.4063 5.93675L14.1188 5.05147L14.872 4.50424H13.9411L13.6532 3.6189Z" fill="white"/>
<path id="Vector_11" d="M5.791 5.86499L5.50337 6.75033H4.57227L5.32553 7.29753L5.03788 8.18313L5.79088 7.63596L6.54409 8.18313L6.2562 7.29753L7.00944 6.75033H6.07856L5.791 5.86499ZM5.79082 7.14645H5.79079L5.79088 7.1463L5.79091 7.14639L5.79082 7.14645Z" fill="white"/>
<path id="Vector_12" d="M11.0327 5.86499L10.745 6.75033H9.81384L10.5672 7.29756L10.2795 8.18313L11.0326 7.63602L11.7857 8.18313L11.498 7.29747L12.251 6.75033H11.3203L11.0327 5.86499ZM11.0327 7.14645L11.0326 7.14639L11.0326 7.1463L11.0327 7.14645H11.0327Z" fill="white"/>
<path id="Vector_13" d="M3.17004 8.11182L2.88248 8.99707H1.95166L2.70458 9.54418L2.41692 10.4296L3.17004 9.88241L3.92316 10.4296L3.63557 9.5443L4.38883 8.99707H3.45767L3.17004 8.11182Z" fill="white"/>
<path id="Vector_14" d="M8.41159 8.11182L8.12399 8.99707H7.19312L7.94632 9.54424L7.65847 10.4296L8.4117 9.88235L9.16473 10.4296L8.87711 9.54424L9.63032 8.99707H8.69921L8.41159 8.11182Z" fill="white"/>
<path id="Vector_15" d="M13.6532 8.11182L13.3656 8.99707H12.4348L13.1879 9.54418L12.9001 10.4296L13.6533 9.88235L14.4063 10.4296L14.1187 9.5443L14.872 8.99707H13.9411L13.6532 8.11182Z" fill="white"/>
<path id="Vector_16" d="M6.07859 11.2432L5.791 10.3579L5.50337 11.2432H4.57227L5.32547 11.7904L5.03785 12.6756L5.79088 12.1284L6.54409 12.6756L6.25629 11.7904L7.00944 11.2432H6.07859Z" fill="white"/>
<path id="Vector_17" d="M11.3203 11.2432L11.0327 10.3579L10.745 11.2432H9.81384L10.5671 11.7905L10.2795 12.6756L11.0327 12.1285L11.7858 12.6756L11.4982 11.7903L12.251 11.2432H11.3203Z" fill="white"/>
<path id="Vector_18" d="M3.45767 13.4897L3.17004 12.6045L2.88245 13.4897H1.95166L2.70455 14.0369L2.41692 14.9223L3.17004 14.3751L3.92316 14.9223L3.63557 14.037L4.38883 13.4897H3.45767Z" fill="white"/>
<path id="Vector_19" d="M8.69921 13.4897L8.41159 12.6045L8.12399 13.4897H7.19312L7.94632 14.037L7.65847 14.9223L8.4117 14.375L9.16473 14.9223L8.87711 14.037L9.63032 13.4897H8.69921Z" fill="white"/>
<path id="Vector_20" d="M13.9411 13.4897L13.6532 12.6045L13.3656 13.4897H12.4348L13.1879 14.0369L12.9001 14.9223L13.6533 14.375L14.4063 14.9223L14.1187 14.037L14.872 13.4897H13.9411Z" fill="white"/>
</g>
</g>
</g>
</g>
<defs>
<clipPath id="clip0_9138_565">
<rect x="0.599976" y="0.100098" width="28.8" height="28.8" rx="14.4" fill="white"/>
</clipPath>
</defs>
</svg>
