<svg width="15" height="15" viewBox="0 0 15 15" fill="none" xmlns="http://www.w3.org/2000/svg">
<path id="Vector" fill-rule="evenodd" clip-rule="evenodd" d="M0.300049 7.47504C0.300049 3.58143 3.45643 0.425049 7.35004 0.425049C11.2436 0.425049 14.4 3.58143 14.4 7.47504C14.4 11.3686 11.2436 14.525 7.35004 14.525C3.45643 14.525 0.300049 11.3686 0.300049 7.47504ZM9.96354 5.56653C10.2388 5.84185 10.2388 6.28824 9.96354 6.56354L7.36717 9.15991C6.96835 9.55873 6.32173 9.55873 5.92289 9.15991L4.73653 7.97354C4.46121 7.69824 4.46121 7.25183 4.73653 6.97653C5.01185 6.70123 5.45823 6.70123 5.73355 6.97653L6.64504 7.88803L8.96653 5.56653C9.24183 5.29121 9.68824 5.29121 9.96354 5.56653Z" fill="#2947F2"/>
</svg>
